<svg width="90" height="90" viewBox="0 0 90 90" fill="none" xmlns="http://www.w3.org/2000/svg">
<g clip-path="url(#clip0_2_178)">
<path d="M25.3575 37.6312C25.3575 38.745 25.4897 39.6394 25.695 40.2975C25.9284 40.9556 26.2378 41.6756 26.6484 42.4519C26.7869 42.6554 26.8631 42.8948 26.8678 43.1409C26.8678 43.4475 26.6766 43.7428 26.2969 44.0494L24.4069 45.2953C24.1827 45.4653 23.9118 45.5625 23.6306 45.5737C23.3241 45.5737 23.0288 45.4275 22.7363 45.1491C22.327 44.7196 21.9641 44.2482 21.6534 43.7428C21.3166 43.1727 21.0087 42.5861 20.7309 41.985C18.3881 44.7384 15.4575 46.1166 11.9278 46.1166C9.40782 46.1166 7.4025 45.3994 5.93719 43.9622C4.47188 42.5109 3.72657 40.6069 3.72657 38.205C3.72657 35.6709 4.62094 33.5897 6.45188 32.0372C8.28281 30.4847 10.6988 29.7084 13.7897 29.7084C14.7994 29.7084 15.8541 29.7956 16.9538 29.9419C18.0675 30.0881 19.2094 30.3384 20.3963 30.6V28.4175C20.3963 26.1478 19.9266 24.5503 18.99 23.6278C18.0366 22.7053 16.4278 22.2497 14.1131 22.2497C13.0725 22.2497 11.9897 22.3678 10.8759 22.6294C9.77901 22.8962 8.70202 23.2392 7.65282 23.6559C7.30125 23.8162 6.94969 23.9344 6.59813 24.0525C6.44505 24.0979 6.28763 24.1272 6.12844 24.1397C5.70375 24.1397 5.49844 23.8331 5.49844 23.2031V21.7378C5.49844 21.2681 5.5575 20.9025 5.70375 20.6972C5.92356 20.419 6.21121 20.2021 6.53907 20.0672C7.73606 19.4693 9.00039 19.017 10.305 18.72C11.8306 18.3265 13.4011 18.1345 14.9766 18.1491C18.5513 18.1491 21.1444 18.9534 22.8291 20.5819C24.4688 22.1934 25.3041 24.6403 25.3041 27.9366V37.6341L25.3575 37.6312ZM13.2131 42.1875C14.1947 42.1875 15.2213 42.0103 16.29 41.6447C17.3889 41.273 18.3692 40.6158 19.1306 39.7406C19.6144 39.1697 19.98 38.5397 20.1572 37.8225C20.3344 37.1053 20.4497 36.225 20.4497 35.2153V33.9553C19.5425 33.732 18.6231 33.5611 17.6963 33.4434C16.7635 33.3246 15.8241 33.2654 14.8838 33.2662C12.8756 33.2662 11.4131 33.6628 10.4316 34.4672C9.43594 35.2716 8.96625 36.4162 8.96625 37.9097C8.96625 39.3159 9.31782 40.3566 10.0659 41.0737C10.7831 41.8219 11.835 42.1875 13.2131 42.1875ZM37.2516 45.4247C36.7088 45.4247 36.3431 45.3375 36.1097 45.1181C35.8763 44.9409 35.6569 44.5162 35.4797 43.9622L28.4484 20.8181C28.3109 20.4303 28.2221 20.0269 28.1841 19.6172C28.1841 19.1334 28.4175 18.8691 28.8872 18.8691H31.8319C32.4028 18.8691 32.7853 18.9562 32.9878 19.1616C33.2381 19.3387 33.4125 19.7634 33.5897 20.3344L38.6297 40.1541L43.3013 20.3344C43.4475 19.7325 43.6247 19.3387 43.8581 19.1616C44.2182 18.9415 44.6381 18.8392 45.0591 18.8691H47.4469C48.0178 18.8691 48.4144 18.9562 48.6478 19.1616C48.8813 19.3387 49.1006 19.7634 49.2188 20.3344L53.9494 40.3875L59.1216 20.3344C59.3128 19.7325 59.5181 19.3387 59.7234 19.1616C60.0733 18.9417 60.4841 18.8392 60.8963 18.8691H63.6806C64.1644 18.8691 64.4288 19.1025 64.4288 19.6172C64.4288 19.7634 64.4006 19.9097 64.3697 20.1009C64.321 20.3553 64.2523 20.6054 64.1644 20.8491L56.9419 43.9791C56.7647 44.5809 56.5622 44.9747 56.3119 45.1519C55.9785 45.3711 55.582 45.474 55.1841 45.4444H52.605C52.0341 45.4444 51.6516 45.3572 51.4041 45.1519C51.1706 44.9466 50.9653 44.55 50.8472 43.9509L46.2038 24.6431L41.5884 43.92C41.4422 44.5219 41.265 44.9156 41.0175 45.1209C40.7841 45.3262 40.3594 45.4134 39.8166 45.4134L37.2516 45.4247ZM75.7041 46.2319C74.1516 46.2319 72.5991 46.0406 71.1056 45.6891C69.6122 45.3375 68.4394 44.9409 67.6631 44.4881C67.1794 44.2237 66.8587 43.9312 66.7406 43.6528C66.6184 43.3911 66.5532 43.1063 66.5494 42.8175V41.2931C66.5494 40.6631 66.7997 40.3566 67.2384 40.3566C67.4156 40.3566 67.6041 40.3847 67.7813 40.4437C67.9584 40.5169 68.2341 40.635 68.5294 40.7503C69.5559 41.2031 70.6528 41.5547 71.8256 41.7909C73.0266 42.0412 74.1853 42.1566 75.3863 42.1566C77.2763 42.1566 78.7416 41.8191 79.7513 41.1609C80.7469 40.5591 81.3488 39.4762 81.3178 38.3203C81.3293 37.5444 81.0412 36.7939 80.5134 36.225C79.9706 35.6681 78.9469 35.1562 77.4816 34.6725L73.1447 33.3253C70.9622 32.6362 69.3366 31.6266 68.355 30.2794C67.3883 29.034 66.8585 27.5049 66.8475 25.9284C66.8475 24.6684 67.1259 23.5687 67.6688 22.6041C68.2116 21.6506 68.9288 20.8181 69.8231 20.1572C70.7523 19.4506 71.8054 18.924 72.9281 18.6047C74.1291 18.2391 75.3891 18.0928 76.7081 18.0928C77.3663 18.0928 78.0553 18.1209 78.7163 18.2109C79.4053 18.2981 80.0353 18.4162 80.6653 18.5484C81.2503 18.6947 81.8213 18.8409 82.3641 19.0181C82.9069 19.1953 83.3316 19.3837 83.6241 19.5609C83.9747 19.7398 84.2804 19.9956 84.5184 20.3091C84.7181 20.6013 84.8159 20.9512 84.7969 21.3047V22.7109C84.7969 23.3409 84.5466 23.6644 84.1078 23.6644C83.7078 23.6234 83.3197 23.5039 82.9659 23.3128C81.1593 22.5098 79.1996 22.1096 77.2228 22.14C75.51 22.14 74.16 22.4044 73.2375 22.9753C72.3009 23.5462 71.8313 24.4097 71.8313 25.6416C71.8313 26.4769 72.1238 27.1941 72.7256 27.765C73.3275 28.3359 74.4384 28.9069 76.0219 29.4216L80.2688 30.7547C82.4231 31.4437 83.9897 32.4112 84.9122 33.6403C85.8347 34.8553 86.2903 36.2616 86.2903 37.8309C86.2903 39.105 86.0119 40.2778 85.5141 41.3016C84.9746 42.3209 84.2318 43.2188 83.3316 43.9397C82.395 44.6878 81.2953 45.2137 80.0072 45.6103C78.6162 46.034 77.1694 46.2463 75.7153 46.2403L75.7041 46.2319ZM81.3713 60.7753C71.5134 68.0569 57.2147 71.9072 44.91 71.9072C27.6694 71.9072 12.1275 65.5341 0.393753 54.9309C-0.528747 54.0956 0.306566 52.9537 1.42032 53.6259C14.1047 60.9806 29.7647 65.4469 45.9506 65.4469C56.8772 65.4469 68.8753 63.1603 79.9341 58.5028C81.5738 57.7406 82.98 59.5716 81.3684 60.7725L81.3713 60.7753ZM85.4747 56.1037C84.2147 54.4922 77.1384 55.3275 73.9463 55.7241C72.9928 55.8422 72.8325 54.9928 73.7128 54.3628C79.3378 50.4225 88.5797 51.5503 89.6653 52.8694C90.7341 54.2306 89.3588 63.4753 84.0994 67.8994C83.295 68.5884 82.5019 68.2369 82.8675 67.3284C84.0684 64.3697 86.7347 57.7012 85.4747 56.1037Z" fill="#F8F8F8"/>
</g>
<defs>
<clipPath id="clip0_2_178">
<rect width="90" height="90" fill="white"/>
</clipPath>
</defs>
</svg>
