<svg width="90" height="90" viewBox="0 0 90 90" fill="none" xmlns="http://www.w3.org/2000/svg">
<path d="M30.9255 3.27164C31.7952 3.27179 32.6429 3.54475 33.3493 4.05208C34.0557 4.55941 34.5851 5.27554 34.863 6.09961L60.1123 80.9093C60.3234 81.5347 60.3826 82.2014 60.2849 82.8542C60.1872 83.507 59.9354 84.1271 59.5503 84.6633C59.1653 85.1994 58.6581 85.6361 58.0708 85.9373C57.4834 86.2384 56.8327 86.3954 56.1727 86.3951H85.268C85.9276 86.3944 86.5777 86.237 87.1645 85.9356C87.7514 85.6342 88.2581 85.1977 88.643 84.6619C89.0281 84.1256 89.2799 83.5053 89.3774 82.8524C89.475 82.1994 89.4156 81.5326 89.2041 80.9072L63.957 6.0975C63.679 5.27314 63.1494 4.55679 62.4427 4.04943C61.7361 3.54207 60.888 3.26928 60.018 3.26953L30.9255 3.27164ZM29.9862 3.60773C29.1149 3.60771 28.2656 3.88108 27.5579 4.38931C26.8503 4.89754 26.3199 5.61501 26.0416 6.44063L0.795933 81.2461C0.584936 81.8712 0.525827 82.5376 0.623496 83.1901C0.721165 83.8427 0.972805 84.4625 1.3576 84.9985C1.74239 85.5345 2.24927 85.9711 2.8363 86.2723C3.42334 86.5734 4.07365 86.7305 4.73343 86.7305H25.0488C25.92 86.7305 26.7687 86.4422 27.476 85.9479C28.1835 85.4399 28.714 84.7228 28.9927 83.8976L33.9279 69.3359L24.4983 60.2958C24.3253 60.1038 23.5469 58.6969 24.2388 57.4819C25.0179 56.3154 26.3166 56.3154 26.3166 56.3154H38.4701L44.8502 37.9322L33.9426 5.8507C33.9131 5.70656 33.3 4.89094 32.3388 4.24758C31.3755 3.60422 29.9869 3.60844 29.9869 3.60844L29.9862 3.60773ZM26.5549 56.8624C26.17 56.8618 25.7938 56.9772 25.4755 57.1936C25.1571 57.4099 24.9113 57.7172 24.7701 58.0753C24.629 58.4334 24.599 58.8257 24.684 59.2011C24.7691 59.5765 24.9653 59.9175 25.2471 60.1798L51.8463 85.0071C52.6205 85.7313 53.6055 86.1539 54.6637 86.1539C54.6637 86.1539 55.5652 86.2017 56.1087 86.1307C57.3862 85.9388 58.5872 84.8876 58.9845 84.4502C60.0089 83.0869 59.5427 80.9698 59.5427 80.9698L51.492 56.8666L26.5549 56.8624Z" fill="#F8F8F8"/>
</svg>
