<svg width="90" height="90" viewBox="0 0 90 90" fill="none" xmlns="http://www.w3.org/2000/svg">
<path d="M20.3363 11.3925C15.5212 11.3925 11.9625 15.6075 12.1237 20.175C12.2738 24.5662 12.075 30.255 10.6425 34.89C9.20625 39.54 6.78 42.4875 2.8125 42.8662V47.1337C6.78 47.5125 9.20625 50.46 10.6425 55.11C12.075 59.7487 12.2738 65.4337 12.12 69.825C11.9625 74.3925 15.5212 78.6075 20.34 78.6075H69.6675C74.4825 78.6075 78.045 74.3925 77.8875 69.825C77.7337 65.4337 77.9325 59.7487 79.3613 55.11C80.8012 50.46 83.2237 47.5125 87.1875 47.1337V42.8662C83.22 42.4875 80.8012 39.54 79.3613 34.89C77.9325 30.255 77.7337 24.5662 77.8875 20.175C78.045 15.6075 74.4825 11.3925 69.6675 11.3925H20.3363ZM60.015 52.7662C60.015 59.0587 55.3237 62.8762 47.535 62.8762H34.275C34.0871 62.8767 33.9009 62.8401 33.7271 62.7686C33.5533 62.697 33.3954 62.5918 33.2623 62.4591C33.1292 62.3264 33.0236 62.1687 32.9516 61.9951C32.8796 61.8215 32.8425 61.6354 32.8425 61.4475V28.5525C32.843 28.3649 32.8804 28.1792 32.9527 28.006C33.0249 27.8329 33.1306 27.6756 33.2636 27.5433C33.3966 27.411 33.5544 27.3062 33.728 27.2348C33.9015 27.1635 34.0874 27.127 34.275 27.1275H47.4562C53.9512 27.1275 58.215 30.6412 58.215 36.045C58.215 39.8325 55.3462 43.23 51.6937 43.8225V44.0212C56.6662 44.565 60.015 48.0112 60.015 52.7662ZM46.0875 31.6575H38.5275V42.3375H44.895C49.8187 42.3375 52.53 40.3537 52.53 36.81C52.53 33.4912 50.1975 31.6575 46.0875 31.6575ZM38.5275 46.5712V58.3425H46.365C51.4913 58.3425 54.2025 56.2837 54.2025 52.4175C54.2025 48.555 51.4162 46.5712 46.035 46.5712H38.5275Z" fill="#F8F8F8"/>
</svg>
