<svg width="84" height="90" viewBox="0 0 84 90" fill="none" xmlns="http://www.w3.org/2000/svg">
<path d="M29.6104 19.1585C31.7356 19.5506 31.1446 22.7546 29.0193 22.3624C12.1624 19.2296 0.352161 25.8916 9.2931 42.3872C10.3617 44.2605 7.52685 45.8774 6.45845 44.0039C-4.18739 25.3546 9.61706 15.3725 29.6104 19.1585ZM72.124 50.7905C87.1928 32.3637 80.5567 18.6603 62.4384 18.4362C60.2865 18.408 60.2468 21.6656 62.3987 21.6937C78.4365 21.6252 82.2522 33.4894 69.6275 48.6915C68.2362 50.3832 70.7845 52.398 72.124 50.7905ZM56.2736 79.6922C57.3749 77.8639 54.6329 76.1597 53.4782 78.0086C44.3615 92.435 33.218 87.9903 26.4736 70.5945C25.7445 68.522 22.6653 69.6056 23.3944 71.6778C29.361 89.9009 45.1838 97.9296 56.2736 79.6924M46.2875 47.2421C46.2875 43.7272 42.4563 41.5185 39.4079 43.276C36.3594 45.0335 36.3594 49.451 39.4079 51.2085C42.4563 52.9659 46.2875 50.7572 46.2875 47.2421ZM6.23591 62.05C6.76712 47.5693 27.8609 29.0985 52.736 22.7426C54.8719 22.2784 54.1799 19.0948 52.0438 19.5592C29.068 24.6462 1.81062 45.0705 2.95636 62.9456C-1.02614 65.349 -0.984656 71.1827 3.07853 73.5167C7.18249 75.8741 12.3399 72.9115 12.3399 68.1969C12.3399 64.6531 9.42599 62.0992 6.23591 62.0503M73.7885 73.3409C76.7212 75.249 80.963 74.3752 82.6749 70.9503C84.7822 66.7345 81.4945 61.7801 76.7713 62.0536C72.337 62.3105 69.7263 66.9978 71.5886 70.8322C57.2619 77.0652 30.6502 66.6359 15.0037 50.0575C13.5718 48.4777 11.155 50.6681 12.5867 52.248C27.427 68.6578 57.5813 81.927 73.7885 73.3409ZM47.873 6.13974C47.8744 2.10908 43.8475 -1.01684 39.7701 0.30908C35.2709 1.77246 34.0542 7.56885 37.5851 10.718C40.5558 13.367 45.0287 12.4853 46.9504 9.39258C58.0833 16.7525 64.9917 41.9054 57.6305 68.5266C56.9938 70.5873 60.113 71.5511 60.7497 69.4904C67.4385 47.8845 63.8201 15.8887 47.873 6.13939" fill="#F8F8F8"/>
</svg>
