<svg width="90" height="90" viewBox="0 0 90 90" fill="none" xmlns="http://www.w3.org/2000/svg">
<g clip-path="url(#clip0_2_184)">
<path d="M90 69.705C88.6901 70.2004 87.2442 70.1994 85.9351 69.702C84.626 69.2046 83.5442 68.2453 82.8937 67.005L69.9563 49.1138L68.0813 46.6125L53.07 67.0275C52.4587 68.2157 51.4356 69.1406 50.1919 69.6292C48.9482 70.1179 47.5691 70.1368 46.3125 69.6825L65.655 43.7325L47.6625 20.2913C48.9562 19.8251 50.3711 19.8189 51.6689 20.2738C52.9666 20.7287 54.068 21.6169 54.7875 22.7888L68.1975 40.9013L81.6825 22.8638C82.2985 21.6967 83.3219 20.7967 84.5581 20.3349C85.7943 19.873 87.1572 19.8815 88.3875 20.3588L81.405 29.625L71.9475 41.9363C71.6849 42.1706 71.4747 42.4577 71.3308 42.7789C71.1869 43.1001 71.1125 43.4481 71.1125 43.8C71.1125 44.152 71.1869 44.5 71.3308 44.8211C71.4747 45.1423 71.6849 45.4295 71.9475 45.6638L89.9625 69.7088L90 69.705ZM0.00749921 43.41L1.5825 35.6288C5.91 20.2425 23.55 13.8413 35.685 23.3663C42.7912 28.95 44.565 36.855 44.2163 45.765H4.185C3.53625 61.6763 15.0187 71.2838 29.7 66.375C32.08 65.5183 34.2103 64.0847 35.9001 62.2025C37.5899 60.3202 38.7864 58.0483 39.3825 55.59C40.1587 53.0925 41.4375 52.665 43.785 53.385C43.3938 56.4315 42.3169 59.3495 40.6353 61.9197C38.9536 64.4899 36.7111 66.6453 34.0763 68.2238C29.7241 70.6044 24.7306 71.5479 19.8098 70.9195C14.8891 70.2911 10.293 68.123 6.67875 64.725C3.10511 60.7027 0.945285 55.6219 0.528749 50.2575C0.528749 49.3763 0.228749 48.5513 0.0262492 47.76C0.00799432 46.3113 -0.000755865 44.8626 -7.90322e-07 43.4138L0.00749921 43.41ZM4.23375 42.3375H40.4362C40.2113 30.8025 32.9325 22.62 23.2237 22.545C12.4162 22.395 4.68375 30.3975 4.2075 42.285L4.23375 42.3375Z" fill="#F8F8F8"/>
</g>
<defs>
<clipPath id="clip0_2_184">
<rect width="90" height="90" fill="white"/>
</clipPath>
</defs>
</svg>
