<svg width="90" height="90" viewBox="0 0 90 90" fill="none" xmlns="http://www.w3.org/2000/svg">
<path d="M45 5.62499C43.5825 5.62499 42.1987 6.14249 41.1328 7.20843L33.2212 15.2044C32.7937 15.435 32.4337 15.7669 32.1694 16.1719L7.20561 41.1328C6.18166 42.1593 5.60663 43.5501 5.60663 45C5.60663 46.4499 6.18166 47.8406 7.20561 48.8672L41.1328 82.7944C42.1622 83.8129 43.5519 84.3841 45 84.3841C46.4481 84.3841 47.8378 83.8129 48.8672 82.7944L82.7944 48.8672C83.8183 47.8406 84.3934 46.4499 84.3934 45C84.3934 43.5501 83.8183 42.1593 82.7944 41.1328L48.8644 7.20562C48.3571 6.69923 47.7543 6.29872 47.0908 6.02738C46.4274 5.75603 45.7167 5.61925 45 5.62499ZM45 11.3372L78.6628 45L45 78.6628L11.3372 45L34.6303 21.7097L39.5522 26.6316C39.4259 27.1191 39.3663 27.6215 39.375 28.125C39.375 30.2006 40.5056 31.9809 42.1875 32.9597V57.0403C40.5056 58.0191 39.375 59.7966 39.375 61.875C39.375 63.3668 39.9676 64.7976 41.0225 65.8525C42.0774 66.9074 43.5081 67.5 45 67.5C46.4918 67.5 47.9226 66.9074 48.9775 65.8525C50.0324 64.7976 50.625 63.3668 50.625 61.875C50.625 59.7994 49.4944 58.0191 47.8125 57.0403V34.9819L56.4272 43.5937C56.2119 44.4251 56.19 45.2947 56.3631 46.1359C56.5362 46.9771 56.8997 47.7674 57.4256 48.4462C57.9516 49.1251 58.6261 49.6744 59.3974 50.0521C60.1687 50.4298 61.0162 50.6258 61.875 50.625C63.3663 50.6242 64.7964 50.0313 65.8506 48.9765C66.9049 47.9217 67.4972 46.4913 67.4972 45C67.4984 44.141 67.3027 43.2931 66.9252 42.5215C66.5477 41.7498 65.9985 41.075 65.3195 40.5487C64.6406 40.0224 63.8501 39.6587 63.0088 39.4854C62.1674 39.3122 61.2975 39.3341 60.4659 39.5494L50.4478 29.5312C50.663 28.6999 50.685 27.8302 50.5119 26.9891C50.3388 26.1479 49.9753 25.3576 49.4493 24.6787C48.9234 23.9999 48.2489 23.4505 47.4776 23.0729C46.7063 22.6952 45.8588 22.4992 45 22.5C44.4974 22.4915 43.996 22.5511 43.5094 22.6772L38.5875 17.7553L45 11.3372Z" fill="#F8F8F8"/>
</svg>
