<svg width="90" height="90" viewBox="0 0 90 90" fill="none" xmlns="http://www.w3.org/2000/svg">
<g clip-path="url(#clip0_2_150)">
<mask id="mask0_2_150" style="mask-type:luminance" maskUnits="userSpaceOnUse" x="0" y="0" width="90" height="90">
<path d="M0 0H90V90H0V0Z" fill="white"/>
</mask>
<g mask="url(#mask0_2_150)">
<path d="M19.05 0H23.1075V4.00875H26.82V0H30.8775V12.135H26.82V8.07375H23.1075V12.135H19.0538L19.05 0ZM36.21 4.02375H32.64V0H43.8413V4.02375H40.2675V12.135H36.21V4.02375ZM45.6188 0H49.8488L52.4513 4.26375L55.05 0H59.28V12.135H55.2413V6.12L52.4513 10.4362H52.38L49.5863 6.12375V12.135H45.6188V0ZM61.2975 0H65.3588V8.12625H71.0588V12.1388H61.2975V0Z" fill="#F8F8F8"/>
<path fill-rule="evenodd" clip-rule="evenodd" d="M18.9225 82.77L11.25 17.6887H78.75L71.0737 82.7625L44.9625 90L18.9225 82.77ZM34.4362 47.145L33.7088 38.97H64.2525L64.965 30.99H24.99L27.1425 55.1287H54.8062L53.88 65.4787L44.9775 67.8862H44.97L36.0825 65.4862L35.5125 59.1225H27.495L28.6125 71.655L44.9625 76.1925L61.3388 71.655L63.3337 49.29L63.5288 47.1487L34.4362 47.145Z" fill="#F8F8F8"/>
</g>
</g>
<defs>
<clipPath id="clip0_2_150">
<rect width="90" height="90" fill="white"/>
</clipPath>
</defs>
</svg>
