<svg width="90" height="90" viewBox="0 0 90 90" fill="none" xmlns="http://www.w3.org/2000/svg">
<g clip-path="url(#clip0_2_161)">
<mask id="mask0_2_161" style="mask-type:luminance" maskUnits="userSpaceOnUse" x="0" y="0" width="90" height="90">
<path d="M0 0H90V90H0V0Z" fill="white"/>
</mask>
<g mask="url(#mask0_2_161)">
<path fill-rule="evenodd" clip-rule="evenodd" d="M0 0H90V90H0V0ZM68.8013 75.45C64.6275 75.45 62.2687 73.275 60.4575 70.3125L53.5837 74.3063C56.0662 79.2113 61.14 82.9538 68.9963 82.9538C77.0287 82.9538 83.01 78.7838 83.01 71.1675C83.01 64.1063 78.9525 60.9675 71.7675 57.8813L69.6525 56.9775C66.0225 55.4025 64.4512 54.3787 64.4512 51.84C64.4512 49.7887 66.0263 48.2175 68.5013 48.2175C70.9275 48.2175 72.4912 49.2413 73.9425 51.84L80.5275 47.6137C77.7413 42.7125 73.8788 40.8412 68.5013 40.8412C60.9487 40.8412 56.115 45.6712 56.115 52.0163C56.115 58.8975 60.165 62.1562 66.27 64.755L68.385 65.6625C72.2438 67.35 74.5425 68.3775 74.5425 71.2763C74.5425 73.6988 72.3037 75.45 68.8013 75.45ZM36.0263 75.3937C33.12 75.3937 31.9087 73.4062 30.5812 71.0437L23.6962 75.2137C25.6912 79.4362 29.6137 82.9388 36.3825 82.9388C43.8787 82.9388 49.0125 78.9525 49.0125 70.1963V41.3213H40.5562V70.0837C40.5562 74.31 38.8013 75.3937 36.0225 75.3937" fill="#F8F8F8"/>
</g>
</g>
<defs>
<clipPath id="clip0_2_161">
<rect width="90" height="90" fill="white"/>
</clipPath>
</defs>
</svg>
