<svg width="80" height="90" viewBox="0 0 80 90" fill="none" xmlns="http://www.w3.org/2000/svg">
<g clip-path="url(#clip0_2_194)">
<path d="M42.6096 32.9964L31.4281 0H78.9323L67.7122 33.0924C67.2294 33.2079 66.7548 33.355 66.2913 33.5327L55.2075 10.9218L44.0914 33.399C43.6071 33.2314 43.112 33.0969 42.6096 32.9964ZM6.07747 87.0105C21.0191 97.5055 37.5922 77.1977 60.1671 74.6394C73.131 73.8712 81.9425 65.935 76.9219 53.6495C67.587 59.3991 58.8628 51.8648 58.9238 44.3044H51.8305C51.5976 51.0543 46.5205 56.3646 38.6506 55.5752C32.4905 64.7905 25.351 69.9681 17.25 72.5999C11.7745 70.0731 6.62186 63.9181 8.958 55.6972C7.94143 55.5837 6.94483 55.3335 5.9952 54.9534C-1.53562 69.0158 -2.4662 80.1294 6.07747 87.0105ZM17.2011 44.3055C17.2011 38.9644 11.3794 35.6082 6.74737 38.2787C2.11536 40.9491 2.11501 47.6619 6.74737 50.3321C11.3794 53.0028 17.2011 49.6466 17.2011 44.3055ZM47.3314 44.2392C47.3314 38.8983 41.5095 35.5419 36.8775 38.2126C32.2455 40.8832 32.2453 47.5956 36.8775 50.2659C41.5097 52.9365 47.3312 49.5803 47.3312 44.2392M77.3483 44.2392C77.3483 38.8983 71.5265 35.5419 66.8944 38.2126C62.2624 40.8832 62.2623 47.5956 66.8944 50.2659C71.5266 52.9365 77.3482 49.5803 77.3482 44.2392" fill="#F8F8F8"/>
</g>
<defs>
<clipPath id="clip0_2_194">
<rect width="79.11" height="90" fill="white"/>
</clipPath>
</defs>
</svg>
