<svg width="90" height="90" viewBox="0 0 90 90" fill="none" xmlns="http://www.w3.org/2000/svg">
<g clip-path="url(#clip0_2_174)">
<path d="M88.6575 20.3625C88.6923 20.4844 88.71 20.6107 88.71 20.7375V40.0462C88.71 40.5525 88.4362 41.0212 88.0012 41.2687L71.79 50.6062V69.1087C71.7895 69.3563 71.7241 69.5995 71.6004 69.8139C71.4768 70.0284 71.299 70.2068 71.085 70.3312L37.2375 89.8087C37.1591 89.8517 37.0761 89.8857 36.99 89.91C36.96 89.9175 36.93 89.94 36.9 89.9475C36.6647 90.015 36.4152 90.015 36.18 89.9475C36.1387 89.94 36.105 89.9175 36.0675 89.9025C35.9925 89.8725 35.91 89.85 35.835 89.8087L1.99875 70.3312C1.7835 70.2078 1.60462 70.0298 1.48018 69.8152C1.35573 69.6005 1.29013 69.3568 1.29 69.1087V11.1525C1.29 11.0287 1.30875 10.905 1.3425 10.785C1.35375 10.74 1.38 10.71 1.395 10.665C1.41756 10.5902 1.44641 10.5174 1.48125 10.4475C1.49625 10.3987 1.5375 10.365 1.5675 10.3237L1.69125 10.155C1.73625 10.1175 1.785 10.0875 1.83 10.0537C1.8825 10.0087 1.93125 9.96374 1.98375 9.92624L18.9113 0.187486C19.125 0.064062 19.3675 -0.000915527 19.6144 -0.000915527C19.8612 -0.000915527 20.1037 0.064062 20.3175 0.187486L37.2375 9.92624H37.245C37.3013 9.96374 37.3462 10.005 37.395 10.05L37.5375 10.1512C37.5863 10.2037 37.6125 10.2637 37.6613 10.32C37.6912 10.3612 37.7362 10.3987 37.755 10.4437C37.7925 10.5187 37.8187 10.5862 37.845 10.6612C37.8563 10.7025 37.8825 10.74 37.8937 10.7812C37.9312 10.8975 37.9463 11.0212 37.9463 11.1487V47.3437L52.0462 39.2287V20.7262C52.0462 20.6025 52.0612 20.4787 52.095 20.3587C52.1063 20.3212 52.1325 20.2837 52.1437 20.2387C52.1689 20.1631 52.199 20.0892 52.2337 20.0175C52.26 19.9725 52.3013 19.9425 52.3275 19.8937C52.3725 19.8375 52.4062 19.7812 52.4512 19.7325C52.4963 19.6875 52.545 19.6575 52.59 19.6275C52.6425 19.59 52.6875 19.5412 52.7437 19.5075H52.7475L69.6712 9.76499C69.885 9.64156 70.1275 9.57658 70.3744 9.57658C70.6212 9.57658 70.8637 9.64156 71.0775 9.76499L88.0012 19.5075C88.0612 19.545 88.1025 19.5862 88.1588 19.6237C88.2038 19.6612 88.2525 19.6912 88.2937 19.7287C88.3425 19.7812 88.3763 19.8412 88.4212 19.8937C88.4512 19.9387 88.4925 19.9725 88.5112 20.0175C88.5493 20.089 88.5794 20.1645 88.6012 20.2425C88.6237 20.28 88.6462 20.3212 88.6575 20.3625ZM85.8825 39.2325V23.1712L79.965 26.5762L71.7825 31.2862V47.3475L85.8825 39.2325ZM68.97 68.295V52.2187L60.9188 56.8125L37.9463 69.93V86.1487L68.97 68.295ZM4.09875 13.59V68.295L35.1225 86.1487V69.93L18.915 60.7612L18.9075 60.75H18.9C18.8475 60.7125 18.8062 60.6712 18.75 60.6337C18.7087 60.5962 18.66 60.5662 18.6188 60.5325L18.615 60.525C18.5663 60.48 18.5363 60.4312 18.4988 60.375C18.4613 60.3337 18.42 60.2925 18.3938 60.24H18.3862C18.3563 60.1875 18.3375 60.1237 18.3113 60.0637C18.2887 60.0037 18.2587 59.9625 18.2437 59.9025C18.2296 59.8319 18.2196 59.7605 18.2137 59.6887C18.2062 59.6362 18.1912 59.5875 18.1912 59.535V21.7087L10.0162 16.995L4.09875 13.59ZM19.6125 3.03749L5.5125 11.1525L19.6125 19.2675L33.705 11.1525L19.6125 3.03749ZM26.9475 53.6812L35.13 48.9712V13.59L29.205 17.0025L21.0225 21.7087V57.09L26.9475 53.6812ZM70.3763 12.6187L56.2762 20.73L70.3763 28.8412L84.4725 20.7262L70.3763 12.6187ZM68.9662 31.2862L60.7875 26.5762L54.8625 23.175V39.2362L63.045 43.9462L68.97 47.3512L68.9662 31.2862ZM36.5288 67.4887L57.2062 55.6837L67.5412 49.7887L53.4525 41.6775L37.2412 51.0112L22.4625 59.5237L36.5288 67.4887Z" fill="#F8F8F8"/>
</g>
<defs>
<clipPath id="clip0_2_174">
<rect width="90" height="90" fill="white"/>
</clipPath>
</defs>
</svg>
