<svg width="90" height="90" viewBox="0 0 90 90" fill="none" xmlns="http://www.w3.org/2000/svg">
<g clip-path="url(#clip0_2_186)">
<path d="M90.4837 87.795L88.5788 85.98C87.6704 84.777 86.655 83.6587 85.545 82.6388L85.5262 82.6238C84.4062 81.6063 83.2425 80.6388 82.035 79.7213C81.0675 79.0563 79.7375 78.255 78.045 77.3175C76.6717 76.7079 75.577 75.6053 74.9775 74.2275L74.9625 74.19L74.7825 74.1C75.5775 74.0213 76.305 73.875 77.0025 73.6688L76.9162 73.6913L79.0537 73.1025C79.9387 72.825 80.9625 72.645 82.0237 72.6038H82.0462C83.1637 72.5588 84.2175 72.3788 85.2225 72.0825L85.1287 72.105C85.6137 71.985 86.1125 71.8488 86.625 71.6963C87.1375 71.5438 87.5762 71.4075 87.9412 71.2875V70.6538C87.5787 70.1113 87.14 69.4913 86.625 68.7938C86.1474 68.1411 85.5892 67.5515 84.9637 67.0388L84.945 67.0238C83.3725 65.6338 81.7438 64.2888 80.0587 62.9888C78.4791 61.7614 76.8382 60.6149 75.1425 59.5538L74.8875 59.4038C73.9095 58.7645 72.8737 58.2183 71.7937 57.7725L71.6662 57.7275C70.5462 57.2725 69.4425 56.7738 68.355 56.2313C67.9632 56.0394 67.5522 55.8898 67.1287 55.785L67.0875 55.7775C66.6645 55.6934 66.2817 55.4703 66 55.1438L65.9962 55.14C65.4643 54.4337 65.0174 53.6672 64.665 52.8563L64.635 52.7813C64.2725 51.9338 63.88 51.12 63.4575 50.34C62.55 48.585 61.6725 46.8013 60.825 44.9888C59.9775 43.1763 59.1637 41.3613 58.3837 39.5438C57.8412 38.3338 57.3425 37.125 56.8875 35.9175C56.4273 34.6867 55.8483 33.5036 55.1587 32.385L55.2075 32.4713C53.7132 29.9092 52.0455 27.4522 50.2162 25.1175L50.3212 25.26C48.6474 23.14 46.8186 21.147 44.85 19.2975L44.82 19.2713C42.884 17.4549 40.8403 15.7568 38.7 14.1863L38.5162 14.055C36.2762 12.4275 33.8262 10.825 31.1662 9.24751C30.0356 8.58803 28.8172 8.09186 27.5475 7.77376L27.45 7.75126L23.2762 6.70876L20.9175 6.52876C20.1325 6.46876 19.3462 6.43876 18.5587 6.43876C18.0277 6.16083 17.539 5.80852 17.1075 5.39251C16.6904 4.99577 16.2482 4.62626 15.7837 4.28626L15.7462 4.26001C13.3103 2.85437 10.7447 1.68648 8.08499 0.772513L7.76624 0.675013C7.10477 0.29657 6.36664 0.071762 5.60651 0.0172352C4.84637 -0.0372917 4.08371 0.0798591 3.37499 0.360013L3.40874 0.348763C2.71085 0.622445 2.08188 1.04661 1.56659 1.59107C1.0513 2.13552 0.662375 2.78688 0.427494 3.49876L0.416244 3.53626C0.0183047 4.49188 -0.110983 5.53805 0.0423469 6.56179C0.195676 7.58553 0.625795 8.54792 1.28624 9.34501L1.27874 9.33376C2.63874 11.1463 3.68124 12.5713 4.40624 13.6088C4.94874 14.3363 5.50874 15.0925 6.08624 15.8775C6.61499 16.5825 7.08374 17.3888 7.46249 18.24L7.49249 18.3188C7.70249 18.765 7.88624 19.2975 8.02124 19.845L8.03249 19.905C8.15249 20.42 8.30374 20.98 8.48624 21.585C9.02874 22.975 9.54249 24.4 10.0275 25.86C10.5562 27.4538 11.1412 28.8038 11.82 30.09L11.7487 29.94C12.1112 30.605 12.475 31.255 12.84 31.89C13.205 32.525 13.5975 33.145 14.0175 33.75C14.2557 34.1094 14.5629 34.4178 14.9212 34.6575L14.9325 34.665C15.1203 34.7997 15.275 34.9754 15.3848 35.1788C15.4946 35.3822 15.5566 35.6078 15.5662 35.8388C15.1238 36.496 14.8448 37.2531 14.7525 38.04L14.7487 38.0625C14.6311 38.9458 14.4392 39.8177 14.175 40.6688L14.205 40.5563C13.3229 43.257 12.8785 46.0814 12.8887 48.9225C12.8887 49.89 12.9375 50.8425 13.0387 51.7838L13.0275 51.6675C13.2525 55.26 14.3362 58.56 16.0725 61.4175L16.02 61.3238C16.7587 62.43 17.55 63.3938 18.4237 64.275C18.9313 64.846 19.6152 65.231 20.3666 65.3689C21.118 65.5068 21.894 65.3898 22.5712 65.0363L22.5525 65.0438C23.2023 64.8147 23.7693 64.3975 24.1813 63.8453C24.5934 63.293 24.8318 62.6307 24.8662 61.9425V61.935C25.0462 60.1575 25.3162 58.5675 25.6875 57.015L25.6387 57.2663C25.7338 57.0133 25.782 56.7452 25.7812 56.475L25.7737 56.3063V56.3138C25.7437 56.0413 25.91 55.7838 26.2725 55.5413V55.7213C26.635 56.5688 27.0125 57.415 27.405 58.26C27.7975 59.105 28.205 59.9513 28.6275 60.7988C29.7337 62.4825 30.9075 63.9525 32.1975 65.3063L32.1862 65.295C33.4695 66.6808 34.885 67.938 36.4125 69.0488L36.495 69.105C37.29 69.7125 37.9875 70.3688 38.6175 71.085L38.6325 71.1C39.225 71.7975 39.9337 72.3713 40.7325 72.8025L40.77 72.8213V72.7313H40.95C40.8077 72.4128 40.5724 72.1448 40.275 71.9625L40.2675 71.9588C39.9924 71.8071 39.728 71.6367 39.4762 71.4488L39.495 71.46C38.9525 70.9175 38.3925 70.3125 37.815 69.645C37.2375 68.9775 36.7087 68.3425 36.2287 67.74C34.9587 65.985 33.7475 64.1513 32.595 62.2388C31.4425 60.3263 30.3537 58.3825 29.3287 56.4075C28.8437 55.44 28.375 54.4425 27.9225 53.415C27.47 52.3875 27.0312 51.39 26.6062 50.4225C26.4138 50.0293 26.292 49.6054 26.2462 49.17V49.1513C26.2361 48.9453 26.1728 48.7455 26.0623 48.5713C25.9519 48.3971 25.7982 48.2545 25.6162 48.1575L25.6087 48.1538C25.1794 48.8918 24.666 49.5777 24.0787 50.1975L24.0825 50.1938C23.4802 50.8284 22.9952 51.5648 22.65 52.3688L22.6312 52.4175C22.0699 53.8024 21.7051 55.259 21.5475 56.745L21.54 56.8163C21.36 58.4188 21.1787 60.0663 20.9962 61.7588L20.8162 61.8488L20.7262 61.9388C20.2568 61.8446 19.8144 61.6465 19.4316 61.3591C19.0487 61.0716 18.7351 60.702 18.5137 60.2775L18.5062 60.2588C18.0512 59.3813 17.6437 58.5188 17.2837 57.6713C16.3014 55.101 15.7649 52.382 15.6975 49.6313V49.5975C15.5027 46.6583 15.8666 43.7088 16.77 40.905L16.725 41.07C16.905 40.405 17.2975 39.285 17.9025 37.71C18.5075 36.135 18.6287 35.0463 18.2662 34.4438C18.0874 33.8475 17.7427 33.3142 17.2725 32.9063L17.2687 32.9025C16.8205 32.5143 16.4007 32.0945 16.0125 31.6463L16.0012 31.6313C15.5787 31.0213 15.1712 30.3713 14.7787 29.6813C14.3862 28.9913 14.0387 28.3113 13.7362 27.6413C13.038 25.989 12.4443 24.2944 11.9587 22.5675L11.8762 22.2338C11.3427 20.3042 10.6581 18.4196 9.82874 16.5975L9.92624 16.8375C9.53827 15.9471 9.04743 15.1051 8.46374 14.3288L8.48624 14.3588C7.87624 13.5438 7.33124 12.7725 6.85124 12.045C6.24124 11.26 5.63624 10.5038 5.03624 9.77626C4.41102 9.019 3.87499 8.19231 3.43874 7.31251L3.40499 7.23751C3.21312 6.84577 3.06353 6.4347 2.95874 6.01126L2.95124 5.97001C2.88682 5.75698 2.86988 5.53241 2.90163 5.31212C2.93338 5.09184 3.01304 4.88119 3.13499 4.69501L3.13124 4.70251C3.17134 4.49974 3.26598 4.31174 3.40499 4.15876C3.55682 4.02307 3.74182 3.92992 3.94124 3.88876H3.94874C4.24461 3.69688 4.58474 3.58406 4.93663 3.56108C5.28853 3.5381 5.64044 3.60573 5.95874 3.75751L5.94749 3.75376C6.76874 3.98626 7.43249 4.21876 8.08124 4.48501L7.94624 4.43626C9.09374 4.92126 10.1525 5.39001 11.1225 5.84251C12.24 6.37501 13.1925 6.93751 14.0925 7.56376L14.025 7.51876C14.51 7.82126 14.9937 8.15376 15.4762 8.51626C15.9587 8.87876 16.4725 9.24251 17.0175 9.60751H18.2887C19.2562 9.60751 20.2837 9.65376 21.3712 9.74626C22.47 9.83251 23.4862 10.0388 24.4537 10.3613L24.3637 10.335C26.1675 10.8713 27.7162 11.505 29.1862 12.2663L29.0325 12.195C30.515 12.95 31.9212 13.7513 33.2512 14.5988C35.46 15.975 37.3687 17.385 39.165 18.9263L39.1012 18.8738C40.9762 20.4788 42.6787 22.125 44.2762 23.865L44.3137 23.91C45.8737 25.6125 47.3625 27.4613 48.7237 29.4L48.84 29.5763C50.0925 31.3463 51.3562 33.3938 52.4925 35.5163L52.65 35.835C52.9848 36.4857 53.2779 37.1571 53.5275 37.845L53.5687 37.9688C53.8112 38.6638 54.0825 39.3763 54.3825 40.1063C55.0475 41.6188 55.76 43.145 56.52 44.685C57.28 46.225 57.9925 47.7225 58.6575 49.1775L60.6525 53.5313C61.3537 55.0538 62.1375 56.3663 63.0487 57.5775L63.0075 57.5213C63.7687 58.335 64.785 58.905 65.925 59.1038L65.955 59.1075C67.335 59.4525 68.4975 59.8425 69.6225 60.3038L69.4462 60.24C69.9825 60.4838 70.6725 60.7425 71.3812 60.9713L71.5312 61.0125C72.3262 61.2563 73.0162 61.5788 73.65 61.9838L73.6162 61.965C74.8425 62.6513 75.8812 63.3263 76.8712 64.0613L76.7925 64.005C77.82 64.76 78.8475 65.4725 79.875 66.1425C80.36 66.505 81.1737 67.0338 82.3162 67.7288C83.4587 68.4238 84.0637 69.0738 84.1312 69.6788C81.8337 69.5991 79.5335 69.7083 77.2537 70.005L77.4637 69.9825C75.5598 70.2297 73.6957 70.7213 71.9175 71.445L72.0675 71.3925C71.5962 71.5924 71.1096 71.7541 70.6125 71.8763L70.5413 71.8913C70.283 71.9284 70.0445 72.0508 69.8637 72.239C69.683 72.4272 69.5704 72.6704 69.5437 72.93C69.7725 73.215 69.9562 73.5488 70.08 73.9088L70.0875 73.9313C70.215 74.3138 70.3687 74.6438 70.5562 74.9513L70.545 74.9288C70.9912 75.72 71.4712 76.4025 72.0112 77.0325L71.9962 77.0138C72.525 77.6663 73.1212 78.2325 73.7812 78.7163L73.8075 78.735C74.4175 79.22 75.0525 79.7188 75.7125 80.2313C76.3162 80.7038 76.9987 81.1688 77.7075 81.5888L77.7975 81.6375C78.8625 82.29 80.1 82.9125 81.39 83.4338L81.5625 83.4938C82.965 84.0563 84.1687 84.7088 85.2862 85.485L85.2262 85.4438C85.9537 85.8663 86.6787 86.335 87.4012 86.85C88.1237 87.365 88.8187 87.8638 89.4863 88.3463C89.76 88.6163 90 88.9163 90.2025 89.2425L90.2137 89.2613C90.5596 89.6602 91.0401 89.9178 91.5637 89.985H91.575V89.805C91.2434 89.5541 91.0014 89.203 90.885 88.8038L90.8812 88.7888C90.7954 88.4277 90.6537 88.0823 90.4612 87.765L90.4687 87.78L90.4837 87.795ZM20.8237 15.7763C20.3387 15.7763 19.885 15.7913 19.4625 15.8213C19.0503 15.8478 18.6432 15.9272 18.2512 16.0575L18.285 16.0463V16.1363H18.465C18.7075 16.4988 19.0125 16.9063 19.38 17.3588C19.7475 17.8113 20.08 18.25 20.3775 18.675L21.8287 21.6675L22.0087 21.5775C22.4311 21.2735 22.7587 20.8562 22.9537 20.3738L22.9612 20.355C23.1562 19.8338 23.2687 19.2263 23.2687 18.5963L23.265 18.3938V18.405C23.095 18.2396 22.9576 18.0437 22.86 17.8275L22.8562 17.8163L22.5525 17.1338C22.358 16.8231 22.0798 16.5736 21.75 16.4138L21.7387 16.41C21.4018 16.2491 21.0928 16.0351 20.8237 15.7763Z" fill="#F8F8F8"/>
</g>
<defs>
<clipPath id="clip0_2_186">
<rect width="90" height="90" fill="white"/>
</clipPath>
</defs>
</svg>
