<svg width="90" height="90" viewBox="0 0 90 90" fill="none" xmlns="http://www.w3.org/2000/svg">
<g clip-path="url(#clip0_2_170)">
<path d="M53.1091 12.9941C51.4735 10.4196 51.9966 8.7219 52.8993 6.96918C53.7073 5.40016 54.0374 2.67344 51.1822 0.527677C53.811 -0.439999 57.9593 1.27088 58.0307 4.40453C56.5052 6.50336 52.3385 7.33744 53.1091 12.9941ZM71.9829 70.8462C70.7068 74.983 71.2886 77.1841 65.7381 85.7735C75.552 79.1483 80.1821 70.5948 81.7102 60.8869C82.6696 64.935 82.7603 68.6069 82.3834 72.0764C90.5157 61.3701 96.0878 39.7805 77.3457 18.0782C76.5918 27.6711 67.3142 35.2244 56.6146 32.2627C74.9602 30.2403 76.1361 6.9124 60.3756 1.52576C60.6834 8.01561 51.8287 5.89041 54.4328 14.5726C45.4138 9.46984 25.7085 8.42113 17.8748 16.1627C13.8364 20.1537 11.0798 23.4543 6.03263 23.6724C1.86538 23.8524 -3.63763 30.6147 3.5223 34.0731C4.20609 36.955 6.60937 38.5959 8.00296 38.8788C7.65614 44.0107 8.74792 41.3942 10.3475 39.1572C9.80999 45.6444 10.6959 43.3074 13.2029 39.9698C34.4144 35.6801 46.1285 52.9783 46.2611 63.6029C46.1679 61.6753 43.0863 59.4334 41.4555 60.0509C40.3537 62.3853 39.1532 64.3665 37.6715 65.344C37.8264 63.7963 37.7207 62.2485 37.4395 60.7009C36.9508 62.5725 36.0309 64.5159 34.5607 66.5511C31.636 66.7144 27.543 64.5391 28.7335 60.9331C30.4131 57.4263 27.1188 56.6972 24.4649 57.7011C22.4706 58.4555 21.1229 60.5448 20.9387 61.1945C20.2734 63.5379 20.4922 68.7697 25.0425 72.2389C23.8496 72.4586 22.625 72.6544 21.7923 73.1441C29.5325 77.8254 37.433 76.2437 41.8324 74.4773C49.0356 71.5851 54.0037 63.5799 54.781 57.4045C56.7803 66.0906 53.1984 75.7441 45.1696 80.9216C47.4636 81.1643 51.9535 79.6103 56.545 77.9732C53.074 82.3414 48.925 86.4835 42.1284 89.7432C55.5156 88.6217 65.3075 81.9002 71.9831 70.8462" fill="#F8F8F8"/>
</g>
<defs>
<clipPath id="clip0_2_170">
<rect width="90" height="90" fill="white"/>
</clipPath>
</defs>
</svg>
