<svg width="90" height="90" viewBox="0 0 90 90" fill="none" xmlns="http://www.w3.org/2000/svg">
<path d="M59.9062 16.875C59.6825 16.875 59.4679 16.9639 59.3096 17.1221C59.1514 17.2804 59.0625 17.495 59.0625 17.7188V33.1791L55.5581 31.1344C55.3418 31.0064 55.0951 30.939 54.8438 30.939C54.5924 30.939 54.3457 31.0064 54.1294 31.1344L45.7088 36.045C45.4935 36.1693 45.3146 36.348 45.1902 36.5633C45.0658 36.7785 45.0002 37.0227 45 37.2712V47.1037C45 47.61 45.27 48.0769 45.7088 48.33L54.1294 53.2406C54.3457 53.3686 54.5924 53.436 54.8438 53.436C55.0951 53.436 55.3418 53.3686 55.5581 53.2406L63.9787 48.33C64.194 48.2057 64.3729 48.027 64.4973 47.8117C64.6217 47.5965 64.6873 47.3523 64.6875 47.1037V20.3344C64.6868 20.0891 64.6221 19.8482 64.4998 19.6356C64.3774 19.423 64.2017 19.2461 63.99 19.1222L60.3253 16.9903C60.1992 16.9158 60.0556 16.876 59.9091 16.875H59.9062ZM32.3438 30.9431C32.0929 30.9428 31.8465 31.0088 31.6294 31.1344L23.2087 36.045C22.9935 36.1693 22.8146 36.348 22.6902 36.5633C22.5658 36.7785 22.5002 37.0227 22.5 37.2712V47.1037C22.5 47.61 22.77 48.0769 23.2087 48.33L31.6294 53.2406C32.0709 53.4938 32.6138 53.4938 33.0581 53.2406L41.4788 48.33C41.694 48.2057 41.8729 48.027 41.9973 47.8117C42.1217 47.5965 42.1873 47.3523 42.1875 47.1037V37.2712C42.1878 37.0225 42.1225 36.7782 41.998 36.5628C41.8736 36.3475 41.6944 36.1689 41.4788 36.045L33.0581 31.1344C32.841 31.0088 32.5946 30.9428 32.3438 30.9431ZM77.3438 30.9431C77.0928 30.9419 76.8461 31.0079 76.6294 31.1344L68.2088 36.045C67.9935 36.1693 67.8146 36.348 67.6902 36.5633C67.5658 36.7785 67.5002 37.0227 67.5 37.2712V47.1037C67.5 47.61 67.77 48.0769 68.2088 48.33L76.3763 53.2659C76.5921 53.3969 76.8394 53.4671 77.0919 53.4691C77.3444 53.4711 77.5927 53.4048 77.8106 53.2772L81.8269 50.9428C81.9213 50.8872 81.9997 50.8078 82.0541 50.7126C82.1085 50.6174 82.1371 50.5097 82.1371 50.4C82.1371 50.2903 82.1085 50.1826 82.0541 50.0874C81.9997 49.9922 81.9213 49.9128 81.8269 49.8572L73.125 44.73V39.6844L77.3438 37.2291L81.5625 39.6844V43.2C81.5625 43.6697 81.9562 43.7428 82.2206 43.5853C83.6424 42.7552 85.0655 41.9274 86.49 41.1019C86.7019 40.9782 86.8778 40.8013 87.0001 40.5886C87.1225 40.376 87.1871 40.135 87.1875 39.8897V37.2741C87.1878 37.0254 87.1225 36.781 86.998 36.5656C86.8736 36.3503 86.6944 36.1717 86.4787 36.0478L78.0581 31.1372C77.8412 31.0111 77.5946 30.9451 77.3438 30.9459V30.9431ZM9.84375 30.9487C9.59281 30.9475 9.34612 31.0135 9.12938 31.14L0.70875 36.045C0.493209 36.1704 0.31433 36.3502 0.189966 36.5663C0.065602 36.7825 0.000101058 37.0275 0 37.2769V49.8291C0 50.4422 0.66375 50.8219 1.1925 50.5153L4.9275 48.3412C5.13962 48.2171 5.3156 48.0397 5.43795 47.8266C5.56031 47.6134 5.62479 47.372 5.625 47.1263V39.6928L9.84375 37.2319L14.0625 39.6928V47.1263C14.0629 47.3716 14.1275 47.6125 14.2499 47.8252C14.3722 48.0378 14.5481 48.2148 14.76 48.3384L18.495 50.5153C18.6156 50.5856 18.7526 50.6228 18.8922 50.6232C19.0318 50.6236 19.169 50.5871 19.29 50.5175C19.411 50.4479 19.5114 50.3476 19.5812 50.2267C19.651 50.1058 19.6877 49.9686 19.6875 49.8291V37.2769C19.6874 37.0275 19.6219 36.7825 19.4975 36.5663C19.3732 36.3502 19.1943 36.1704 18.9788 36.045L10.5581 31.14C10.3414 31.0135 10.0947 30.9475 9.84375 30.9487ZM54.8438 37.2262L59.0625 39.6872V44.6878L54.8438 47.1488L50.625 44.6878V39.6844L54.8438 37.2234V37.2262ZM77.3438 39.3862L74.9334 40.7925V43.5994L77.3438 45L79.7541 43.5994V40.7925L77.3438 39.3862ZM43.3294 50.6194C43.0372 50.6177 42.7495 50.6913 42.4941 50.8331L34.5853 55.4063C34.3308 55.5505 34.1193 55.76 33.9725 56.013C33.8257 56.2661 33.7489 56.5537 33.75 56.8462V65.9756C33.75 66.5634 34.0791 67.1175 34.5853 67.4156L36.6666 68.6025C37.665 69.0947 38.0334 69.0947 38.4863 69.0947C39.9769 69.0947 40.8262 68.2031 40.8262 66.6281V57.6084C40.827 57.5777 40.8216 57.5471 40.8103 57.5185C40.7991 57.4898 40.7822 57.4637 40.7607 57.4417C40.7392 57.4197 40.7136 57.4022 40.6852 57.3903C40.6568 57.3783 40.6264 57.3722 40.5956 57.3722H39.5944C39.5317 57.3722 39.4716 57.3971 39.4273 57.4414C39.383 57.4857 39.3581 57.5458 39.3581 57.6084V66.6281C39.3581 67.3116 38.6353 68.0147 37.4569 67.4269L35.2913 66.1781C35.2559 66.1559 35.2267 66.1252 35.206 66.0889C35.1854 66.0526 35.1741 66.0117 35.1731 65.97V56.8406C35.1731 56.7591 35.2125 56.6634 35.2941 56.6213L43.2028 52.0622C43.2407 52.0413 43.2833 52.0303 43.3266 52.0303C43.3698 52.0303 43.4124 52.0413 43.4503 52.0622L51.3675 56.6184C51.4491 56.6634 51.4884 56.745 51.4884 56.8406V65.97C51.4882 66.0138 51.4771 66.0568 51.4559 66.0951C51.4348 66.1334 51.4044 66.1658 51.3675 66.1894L43.4503 70.7653C43.4124 70.7862 43.3698 70.7972 43.3266 70.7972C43.2833 70.7972 43.2407 70.7862 43.2028 70.7653L41.1834 69.5616C41.1272 69.5334 41.0428 69.5194 40.9894 69.5475C40.6193 69.7848 40.2179 69.9694 39.7969 70.0959C39.6591 70.1381 39.4734 70.2225 39.87 70.4419L42.4941 72.0028C42.7507 72.1424 43.0373 72.2177 43.3294 72.2222C43.6204 72.2251 43.9062 72.1451 44.1534 71.9916L52.065 67.4156C52.3195 67.2713 52.531 67.0619 52.6778 66.8088C52.8246 66.5558 52.9014 66.2682 52.9003 65.9756V56.8462C52.8966 56.5547 52.8178 56.269 52.6715 56.0167C52.5252 55.7645 52.3163 55.5542 52.065 55.4063L44.1534 50.8359C43.9023 50.6935 43.6181 50.6198 43.3294 50.6222V50.6194ZM55.6678 54.8325C55.4684 54.8329 55.271 54.8725 55.0868 54.9492C54.9027 55.0258 54.7355 55.138 54.5947 55.2793C54.4539 55.4206 54.3424 55.5882 54.2664 55.7726C54.1904 55.9571 54.1515 56.1546 54.1519 56.3541C54.1522 56.5535 54.1919 56.7509 54.2686 56.935C54.3452 57.1192 54.4574 57.2864 54.5987 57.4272C54.74 57.5679 54.9076 57.6795 55.092 57.7555C55.2764 57.8315 55.474 57.8704 55.6734 57.87C56.0762 57.8693 56.4622 57.7085 56.7465 57.4232C57.0308 57.1378 57.1901 56.7512 57.1894 56.3484C57.1886 55.9456 57.0279 55.5596 56.7426 55.2753C56.4572 54.9911 56.0706 54.8318 55.6678 54.8325ZM55.6509 55.0744C56.3653 55.0744 56.9447 55.6369 56.9447 56.3484C56.9396 56.69 56.8017 57.0161 56.5601 57.2576C56.3186 57.4992 55.9925 57.6371 55.6509 57.6422C55.3113 57.6385 54.987 57.5002 54.7492 57.2576C54.5114 57.0151 54.3795 56.6881 54.3825 56.3484C54.3814 56.1813 54.4134 56.0156 54.4767 55.8609C54.54 55.7061 54.6333 55.5655 54.7512 55.447C54.8691 55.3286 55.0093 55.2347 55.1638 55.1707C55.3182 55.1067 55.4838 55.074 55.6509 55.0744ZM55.0969 55.4878V57.195H55.4203V56.5144H55.7241C55.8478 56.5144 55.8759 56.565 55.9041 56.6606C55.9041 56.6747 55.9547 57.1191 55.9688 57.2006H56.3203C56.2757 57.0524 56.2483 56.8995 56.2388 56.745C56.1994 56.5256 56.1881 56.3737 55.9547 56.3597C56.0784 56.3175 56.2837 56.2528 56.2837 55.9378C56.2837 55.485 55.89 55.4878 55.6847 55.4878H55.0969ZM55.4203 55.7606H55.6959C55.7803 55.7606 55.9434 55.7606 55.9434 55.9913C55.9434 56.0869 55.9013 56.2444 55.6791 56.2388H55.4203V55.7606ZM45.45 57.1556C43.1916 57.1556 41.85 58.1203 41.85 59.7066C41.85 61.4447 43.1944 61.9088 45.3572 62.1253C47.9447 62.3869 48.1472 62.7581 48.1472 63.2644C48.1472 64.1531 47.4328 64.5216 45.7622 64.5216C43.6669 64.5216 43.2084 64.0041 43.0566 62.9634C43.0425 62.8509 42.9441 62.7694 42.8203 62.7694H41.7909C41.7602 62.7694 41.7297 62.7755 41.7014 62.7874C41.673 62.7994 41.6473 62.8169 41.6258 62.8389C41.6044 62.8609 41.5875 62.887 41.5762 62.9156C41.565 62.9443 41.5596 62.9749 41.5603 63.0056C41.5603 64.3331 42.2859 65.9222 45.7481 65.9222C48.2878 65.9222 49.725 64.9378 49.725 63.2109C49.725 61.5009 48.5719 61.0453 46.1362 60.7162C43.6725 60.3872 43.4278 60.2213 43.4278 59.6447C43.4278 59.1666 43.6303 58.5394 45.4528 58.5394C47.0784 58.5394 47.6859 58.8966 47.9334 59.9906C47.9616 60.1031 48.0375 60.1678 48.1472 60.1678H49.1737C49.2412 60.1678 49.3003 60.1397 49.3397 60.1003C49.3819 60.0469 49.4072 59.9934 49.3959 59.9259C49.2328 58.0359 47.9841 57.1556 45.45 57.1556Z" fill="#F8F8F8"/>
</svg>
