<svg width="90" height="90" viewBox="0 0 90 90" fill="none" xmlns="http://www.w3.org/2000/svg">
<path d="M44.945 53.0153L33.5297 35.1721L33.5127 50.1641L13.8398 17.0434H0V72.9564H13.7297V39.8772L33.1998 71.4741L44.945 53.0153ZM33.5333 31.4163H47.2321V17.0437H33.5471L33.5333 31.4163ZM74.7123 50.2158C70.7147 44.9669 63.1818 46.208 60.9412 51.9284C66.6371 45.1123 71.2122 51.4151 74.7123 50.2158ZM76.1947 50.9483C76.5102 51.4688 76.9865 51.8726 77.5518 52.0984C78.117 52.3243 78.7404 52.36 79.3278 52.2002C81.1747 51.8047 81.0475 53.5519 83.8368 54.1434C83.9273 51.9476 83.1988 51.7213 81.0302 50.8932C78.8535 50.2288 77.2056 49.2618 76.2152 47.3474C72.9717 41.1291 63.1818 43.5605 61.1889 49.4935C65.1013 44.2524 73.1157 44.6363 76.1947 50.9483ZM52.9655 41.7412L47.1978 32.6753H33.5333L46.5168 53.0084L33.8463 72.9564H47.1187L52.8931 64.0865L58.7711 72.9564H72.0468L60.0093 54.0127C58.8113 52.0615 60.8108 46.5667 64.1895 44.4083C68.1836 41.857 74.6035 41.625 77.4948 47.6293C79.8713 50.7248 84.6174 49.3696 84.6174 53.4073C84.8057 56.9558 89.933 56.845 89.9242 53.2491C89.6084 32.6348 64.0457 25.2362 52.9655 41.7412ZM87.5341 60.0831C87.5341 60.0831 86.4473 59.5535 87.1075 58.5388C87.8402 57.4073 89.2881 57.5379 89.9381 56.1417C90.2798 58.0607 89.1678 60.76 87.5341 60.0831Z" fill="#F8F8F8"/>
</svg>
