<svg width="90" height="90" viewBox="0 0 90 90" fill="none" xmlns="http://www.w3.org/2000/svg">
<path d="M45 20.16C20.1516 20.16 0 30.7463 0 43.8244C0 56.9025 20.1516 67.4944 45 67.4944C69.8484 67.4944 90 56.9025 90 43.8244C90 30.7463 69.8484 20.16 45 20.16ZM45 22.5225C69.1031 22.5225 87.6375 32.6728 87.6375 43.8244C87.6375 54.9759 69.0891 65.1319 45 65.1319C20.8969 65.1319 2.3625 54.9759 2.3625 43.8244C2.3625 32.6728 20.9109 22.5225 45 22.5225ZM39.5353 27.2138L34.9847 50.67H40.0613L42.6825 37.2263C46.8141 37.2263 48.5241 37.0631 49.275 37.8703C50.0541 38.7056 49.6547 39.6225 47.5116 50.6672H52.6584C54.8859 39.2484 55.8703 36.8241 53.8116 34.9313C51.8512 33.1228 47.79 33.4406 43.4053 33.4406L44.6147 27.2138H39.5353ZM18.2475 33.4575L13.6969 56.9306H18.8072L20.0166 50.6953C25.7316 50.6953 29.2838 51.1116 32.5659 48.0375C36.1969 44.6991 37.1447 38.7563 34.5544 35.7834C33.2044 34.2253 31.0303 33.4575 28.0856 33.4575H18.2475ZM58.1625 33.4575L53.6034 56.9306H58.7222L59.9316 50.6953C65.9419 50.6953 69.2691 51.0441 72.4809 48.0375C76.1119 44.6991 77.0625 38.7563 74.4722 35.7834C73.1222 34.2253 70.9481 33.4575 68.0006 33.4575H58.1625ZM26.2575 37.1559C29.4497 37.2459 31.275 37.9209 30.5044 41.9288C29.4047 47.565 25.5263 46.9828 20.7534 46.9828L22.6603 37.1616C23.9822 37.1616 25.1916 37.125 26.2575 37.1559ZM66.1753 37.1559C69.3731 37.2459 71.1787 37.9209 70.4053 41.9288C69.2916 47.6466 65.3006 46.9828 60.6544 46.9828L62.5612 37.1616C63.8916 37.1616 65.1122 37.125 66.1753 37.1559Z" fill="#F8F8F8"/>
</svg>
