<svg width="90" height="90" viewBox="0 0 90 90" fill="none" xmlns="http://www.w3.org/2000/svg">
<path d="M88.35 55.2113C88.298 55.0528 88.2262 54.9016 88.1363 54.7613C87.615 53.7788 86.3475 53.4825 84.36 53.895C78.1575 55.17 75.7575 54.3825 74.8875 53.82C79.92 46.14 84.0563 36.8625 86.2913 28.2075C87.3112 24.27 89.2838 14.9963 86.7487 10.47C86.5881 10.1588 86.3998 9.86262 86.1862 9.58501C81.3487 3.41251 74.25 0.093758 65.6625 0.00375796C60.0563 -0.056242 55.275 1.30126 53.9775 1.80001C53.3355 1.67969 52.6902 1.57715 52.0425 1.49251C50.4183 1.19943 48.7728 1.04014 47.1225 1.01626C42.69 0.945008 38.8613 2.00626 35.685 4.16626C32.475 2.96251 17.7337 -2.00249 8.61 4.46251C3.50625 8.07376 1.15875 14.5238 1.6125 23.64C1.76625 26.7075 3.51375 36.1425 6.27375 45.18C7.99875 50.8275 9.79125 55.3125 11.6475 58.6125C13.7212 62.34 15.87 64.5863 18.075 65.325C19.755 65.88 22.3237 65.8613 25.0425 62.5913C27.4009 59.7704 29.833 57.0119 32.3363 54.3188C33.9675 55.2 35.7337 55.6763 37.5487 55.7325C37.5486 55.7375 37.5486 55.7425 37.5487 55.7475C37.2332 56.1232 36.9244 56.5045 36.6225 56.8913C35.3512 58.5038 35.085 58.8413 30.9975 59.685C29.835 59.925 26.745 60.5588 26.7 62.7263C26.6914 63.1596 26.81 63.5859 27.0413 63.9525C27.8925 65.5388 30.4988 66.24 30.8475 66.3263C35.8538 67.575 40.2412 66.6713 43.4925 63.78C43.4287 72.1463 43.7812 80.3475 44.7863 82.86C45.615 84.9338 47.6438 90 54.0488 90C54.9863 90 56.0213 89.8875 57.1575 89.6475C63.84 88.215 66.7425 85.26 67.8637 78.75C68.4262 75.4875 69.3712 67.9688 69.885 63.3713C69.9487 63.1088 70.02 62.9213 70.0988 62.8613C70.0988 62.8613 70.3613 62.6813 71.7 62.9738C71.7544 62.9858 71.8095 62.9946 71.865 63L72.8175 63.0825L72.8737 63.0863C76.05 63.2325 80.04 62.5538 82.365 61.4738C84.78 60.3488 89.1413 57.6 88.35 55.2113ZM8.8875 44.535C6.0975 35.4038 4.47 26.2163 4.3425 23.6438C3.93375 15.4988 5.90625 9.83251 10.2 6.79501C17.0887 1.92376 28.35 4.77001 33.105 6.30751L33.0675 6.34501C25.4812 14.0025 25.6612 27.0975 25.6875 27.9C25.6875 28.2075 25.71 28.6463 25.7475 29.25C25.875 31.4475 26.1225 35.55 25.47 40.1925C24.87 44.505 26.1975 48.7275 29.1187 51.7763C29.4188 52.0913 29.7375 52.3875 30.0638 52.665C28.7625 54.0563 25.9387 57.1388 22.9275 60.7575C20.7975 63.315 19.3275 62.8238 18.8475 62.6625C17.3775 62.175 15.7987 60.4613 14.2012 57.705C12.4012 54.5588 10.59 50.085 8.895 44.535M31.4212 63.615C30.8519 63.4717 30.3063 63.2468 29.8013 62.9475C30.135 62.8013 30.69 62.61 31.6125 62.4225C36.4275 61.4288 37.17 60.7313 38.7938 58.6725C39.2311 58.1014 39.6902 57.5473 40.17 57.0113C40.2961 56.8703 40.3907 56.7041 40.4475 56.5238C41.085 55.9575 41.4675 56.1113 42.0825 56.3663C42.6675 56.61 43.2375 57.3413 43.47 58.1475C43.5825 58.53 43.7025 59.2538 43.3013 59.8163C39.9113 64.5638 34.9688 64.5038 31.4212 63.615ZM39.2738 48.66L39.0788 49.185C38.58 50.5238 38.115 51.7688 37.8263 52.95C35.325 52.9425 32.8875 51.87 31.0388 49.9388C28.6838 47.4825 27.615 44.0663 28.1025 40.5638C28.7887 35.6588 28.5375 31.3875 28.4025 29.0925L28.3538 28.2675C29.4638 27.285 34.6013 24.5325 38.265 25.3725C39.9375 25.755 40.9575 26.895 41.3775 28.8525C43.5713 38.9925 41.67 43.215 40.14 46.6125C39.8296 47.2851 39.5419 47.968 39.2775 48.66M66.8925 65.805C66.8288 66.4688 66.7575 67.215 66.66 68.04L66.1125 69.6825C66.0692 69.8132 66.0464 69.9498 66.045 70.0875C66.0225 71.8688 65.8425 72.5213 65.6137 73.35C65.2414 74.6419 65.0149 75.9714 64.9387 77.3138C64.5262 82.6163 61.6463 85.665 55.875 86.8988C50.1938 88.1175 49.185 85.0388 48.3 82.32C48.2077 82.0345 48.1102 81.7507 48.0075 81.4688C47.2013 79.2713 47.295 76.1738 47.4188 71.8875C47.4788 69.7838 47.325 64.7588 46.1813 61.965C46.1963 60.8663 46.2188 59.7488 46.2525 58.62C46.2556 58.4764 46.2354 58.3333 46.1925 58.1963C46.1561 57.9327 46.101 57.672 46.0275 57.4163C45.57 55.8113 44.4525 54.4688 43.1025 53.91C42.57 53.6888 41.5913 53.2838 40.4138 53.5838C40.665 52.5488 41.1 51.3825 41.5725 50.115L41.7713 49.5825C41.9963 48.9825 42.2738 48.3638 42.57 47.7075C44.1675 44.1525 46.3575 39.285 43.98 28.29C43.0913 24.1725 40.1175 22.1625 35.61 22.6275C32.91 22.9088 30.435 24 29.2013 24.6225C28.9537 24.7477 28.7087 24.8777 28.4663 25.0125C28.8113 20.865 30.1125 13.11 34.9762 8.20501C35.3372 7.84096 35.7164 7.49551 36.1125 7.17001C36.3096 7.13226 36.4955 7.05019 36.6562 6.93001C39.4762 4.79251 43.0125 3.74251 47.1637 3.80626C48.7013 3.83251 50.1713 3.93376 51.5663 4.11001C58.8413 5.44126 63.7313 9.53626 66.7012 13.0463C69.7538 16.6538 71.4075 20.2875 72.0675 22.2488C67.1063 21.7463 63.7313 22.725 62.0175 25.1738C58.2975 30.4913 64.0575 40.8188 66.825 45.7838C67.3312 46.6913 67.77 47.4788 67.9087 47.8088C68.8087 49.995 69.975 51.4538 70.8262 52.5188C71.0887 52.845 71.3438 53.16 71.535 53.4375C70.035 53.8725 67.335 54.8738 67.5788 59.8763C67.4856 60.8962 67.3806 61.915 67.2637 62.9325C67.0912 63.7125 67.005 64.6575 66.8925 65.805ZM70.2262 59.7263C70.0762 56.6063 71.2387 56.28 72.465 55.9388C72.635 55.8917 72.8038 55.8404 72.9712 55.785C73.1295 55.9254 73.2974 56.0545 73.4738 56.1713C75.6113 57.5813 79.41 57.75 84.75 56.6738C83.9925 57.3375 82.8037 58.1738 81.1762 58.9275C79.6387 59.64 77.0662 60.1763 74.625 60.2925C71.925 60.42 70.5525 59.9925 70.2262 59.7263ZM72.3638 24.96C72.3196 26.2189 72.188 27.4731 71.97 28.7138C71.7637 30.0563 71.55 31.4438 71.4938 33.1275C71.4413 34.7625 71.6438 36.465 71.8425 38.115C72.2438 41.4413 72.6525 44.865 71.0663 48.2438C70.8022 47.7772 70.5668 47.2951 70.3613 46.8C69.9908 46.0104 69.5841 45.2384 69.1425 44.4863C66.8325 40.3463 61.4287 30.6488 64.1925 26.6963C65.6175 24.66 69.225 24.5738 72.3638 24.96ZM73.2188 51.2588C73.1132 51.1244 73.007 50.9907 72.9 50.8575L72.7688 50.6925C75.4912 46.1925 74.9587 41.7413 74.4825 37.7963C74.2875 36.1763 74.1075 34.6463 74.1525 33.2138C74.2012 31.6875 74.4 30.3825 74.595 29.1188C74.835 27.5625 75.0825 25.9538 75.0113 24.0563C75.0669 23.8231 75.0821 23.5821 75.0562 23.3438C74.8838 21.5213 72.8063 16.0763 68.5687 11.145C65.807 7.89031 62.3665 5.27926 58.4888 3.49501C60.9842 2.98471 63.5283 2.7508 66.075 2.79751C73.77 2.97001 79.8563 5.85001 84.165 11.3588C84.257 11.4781 84.3409 11.6033 84.4163 11.7338C87.1275 16.8188 83.385 35.265 73.2188 51.2588ZM40.155 28.3238C40.0613 28.9988 38.9925 29.91 37.8263 29.91C37.7246 29.9096 37.6231 29.9021 37.5225 29.8875C36.761 29.754 36.0809 29.3306 35.625 28.7063C35.4525 28.4813 35.175 28.0388 35.2275 27.6375C35.2448 27.5256 35.2846 27.4184 35.3446 27.3224C35.4045 27.2263 35.4833 27.1434 35.5763 27.0788C36.0188 26.745 36.8963 26.6213 37.8638 26.7563C39.0488 26.9213 40.2713 27.48 40.1512 28.3238M69.8887 26.7825C69.93 27.0825 69.705 27.5325 69.315 27.945C68.9112 28.3848 68.3733 28.6788 67.785 28.7813C67.6918 28.794 67.5978 28.8002 67.5037 28.8C66.405 28.8 65.475 27.9225 65.4037 27.4088C65.3137 26.745 66.3937 26.2463 67.5037 26.0888C68.6212 25.9313 69.7987 26.1225 69.8887 26.7825Z" fill="#F8F8F8"/>
</svg>
