<svg width="90" height="90" viewBox="0 0 90 90" fill="none" xmlns="http://www.w3.org/2000/svg">
<path d="M73.5117 31.1484C72.5625 30.832 71.6133 30.5332 70.6641 30.252C70.8223 29.6016 70.9629 28.9512 71.1035 28.3008C73.2656 17.8242 71.8418 9.4043 67.043 6.62695C62.4199 3.97266 54.8789 6.73242 47.25 13.377C46.4941 14.0273 45.7559 14.7129 45.0527 15.3984C44.5781 14.9414 44.0859 14.4844 43.5938 14.0449C35.5957 6.94336 27.5801 3.95508 22.7813 6.75C18.1758 9.42187 16.8047 17.3496 18.7383 27.2637C18.9316 28.248 19.1426 29.2148 19.3887 30.1992C18.2637 30.5156 17.1562 30.8672 16.1191 31.2363C6.73242 34.4883 0 39.6211 0 44.9297C0 50.4141 7.17188 55.916 16.9277 59.2559C17.7188 59.5195 18.5098 59.7832 19.3184 60.0117C19.0547 61.0664 18.8262 62.1035 18.6152 63.1758C16.7695 72.9316 18.2109 80.666 22.8164 83.3203C27.5625 86.0625 35.543 83.25 43.3125 76.4473C43.9277 75.9023 44.543 75.3398 45.1582 74.7422C45.9316 75.498 46.7402 76.2188 47.5488 76.9219C55.0723 83.3906 62.5078 86.0098 67.0957 83.3555C71.8418 80.6133 73.3887 72.2988 71.3848 62.1738C71.2266 61.4004 71.0508 60.6094 70.8574 59.8008C71.4199 59.6426 71.9648 59.4668 72.5098 59.291C82.6523 55.9336 90 50.502 90 44.9297C90 39.6035 83.0742 34.4355 73.5117 31.1484ZM49.7285 16.2246C56.2676 10.5293 62.3672 8.29687 65.1445 9.89648C68.1152 11.6016 69.2578 18.4922 67.3945 27.5449C67.2715 28.1426 67.1484 28.7227 66.9902 29.3027C63.0879 28.4238 59.1328 27.791 55.1602 27.4395C52.875 24.1699 50.3789 21.041 47.6719 18.1055C48.3574 17.4551 49.0254 16.8398 49.7285 16.2246ZM29.3906 54.0527C30.2871 55.582 31.2012 57.1113 32.168 58.6055C29.4258 58.3066 26.7012 57.8672 24.0117 57.2871C24.7852 54.7559 25.752 52.1367 26.877 49.4648C27.6855 51.0117 28.5117 52.541 29.3906 54.0527ZM24.0645 32.9062C26.5957 32.3437 29.2852 31.8867 32.0801 31.5352C31.1484 32.9941 30.2344 34.4883 29.373 36C28.5117 37.4941 27.668 39.0234 26.877 40.5703C25.7695 37.9512 24.8379 35.3848 24.0645 32.9062ZM28.8809 45.0176C30.041 42.5918 31.3066 40.2187 32.6426 37.8809C33.9785 35.543 35.4199 33.2754 36.9316 31.043C39.5684 30.8496 42.2578 30.7441 45 30.7441C47.7422 30.7441 50.4492 30.8496 53.0684 31.043C54.5625 33.2578 55.9863 35.5254 57.3398 37.8457C58.6934 40.166 59.959 42.5391 61.1543 44.9473C59.9766 47.373 58.7109 49.7637 57.3574 52.1191C56.0215 54.457 54.5977 56.7246 53.1035 58.9746C50.4844 59.168 47.7598 59.2559 45 59.2559C42.2402 59.2559 39.5684 59.168 36.9844 59.0098C35.4551 56.7773 34.0137 54.4922 32.6602 52.1543C31.3066 49.8164 30.0586 47.4434 28.8809 45.0176ZM60.627 54.0176C61.5234 52.4707 62.3672 50.9062 63.1934 49.3242C64.3184 51.873 65.3027 54.457 66.1641 57.1113C63.4395 57.7266 60.6797 58.2012 57.9023 58.5176C58.8516 57.041 59.748 55.5293 60.627 54.0176ZM63.1582 40.5703C62.332 39.0234 61.4883 37.4766 60.6094 35.9648C59.748 34.4707 58.8516 32.9941 57.9199 31.5352C60.75 31.8867 63.457 32.3613 65.9883 32.9414C65.1797 35.543 64.2305 38.0742 63.1582 40.5703ZM45.0352 20.7949C46.8809 22.7988 48.6211 24.9082 50.2383 27.0879C46.7578 26.9297 43.2598 26.9297 39.7793 27.0879C41.502 24.8203 43.2773 22.7109 45.0352 20.7949ZM24.6445 10.0195C27.5977 8.29687 34.1543 10.7578 41.0625 16.875C41.502 17.2617 41.9414 17.6836 42.3984 18.1055C39.6738 21.041 37.1602 24.1699 34.8574 27.4395C30.8848 27.791 26.9473 28.4062 23.0449 29.2676C22.8164 28.3711 22.623 27.457 22.4297 26.543C20.7773 18.0352 21.8672 11.6191 24.6445 10.0195ZM20.3379 56.3555C19.5996 56.1445 18.8789 55.916 18.1582 55.6699C14.4141 54.4922 10.1602 52.6289 7.08398 50.1855C5.30859 48.9551 4.11328 47.0566 3.7793 44.9297C3.7793 41.7129 9.33398 37.5996 17.3496 34.8047C18.3516 34.4531 19.3711 34.1367 20.3906 33.8379C21.5859 37.6523 23.0273 41.3965 24.6973 45.0176C23.0098 48.6914 21.5508 52.4883 20.3379 56.3555ZM40.834 73.582C37.9336 76.2363 34.5762 78.3457 30.9199 79.7871C28.9687 80.7188 26.7188 80.8066 24.7148 80.0156C21.9199 78.3984 20.7598 72.1934 22.3418 63.8438C22.5352 62.8594 22.7461 61.875 22.9922 60.9082C26.9297 61.7519 30.9023 62.332 34.9277 62.6309C37.248 65.918 39.7969 69.0645 42.5215 72.0176C41.959 72.5625 41.3965 73.0898 40.834 73.582ZM45.1406 69.3105C43.3477 67.3769 41.5547 65.2324 39.8145 62.9297C41.502 63 43.2422 63.0352 45 63.0352C46.8105 63.0352 48.5859 63 50.3438 62.9121C48.7266 65.1445 46.9863 67.2715 45.1406 69.3105ZM68.1152 74.584C67.957 76.7285 66.9023 78.7324 65.2148 80.0859C62.4199 81.7031 56.4609 79.5938 50.0273 74.0742C49.2891 73.4414 48.5508 72.7559 47.7949 72.0527C50.4844 69.082 52.9629 65.9355 55.2129 62.6309C59.2383 62.2969 63.2461 61.6816 67.2012 60.7852C67.377 61.5059 67.5352 62.2266 67.6758 62.9297C68.5371 66.7266 68.6777 70.6816 68.1152 74.584ZM71.3145 55.6875C70.8223 55.8457 70.3301 56.0039 69.8203 56.1445C68.5898 52.3125 67.0781 48.5684 65.3379 44.9297C67.0254 41.3438 68.4492 37.6523 69.6445 33.873C70.5586 34.1367 71.4375 34.418 72.2812 34.6992C80.4727 37.5117 86.2207 41.6953 86.2207 44.8945C86.2207 48.3398 80.0859 52.7871 71.3145 55.6875ZM45 53.0508C49.4473 53.0508 53.0508 49.4473 53.0508 45C53.0508 40.5527 49.4473 36.9492 45 36.9492C40.5527 36.9492 36.9492 40.5527 36.9492 45C36.9492 49.4473 40.5527 53.0508 45 53.0508Z" fill="#F8F8F8"/>
</svg>
