<svg width="90" height="90" viewBox="0 0 90 90" fill="none" xmlns="http://www.w3.org/2000/svg">
<g clip-path="url(#clip0_2_180)">
<path d="M45 15C38.844 15 33.552 16.662 29.4 20.22C25.272 23.76 22.578 28.902 21.078 35.316C20.9188 35.9953 21.0013 36.7089 21.3114 37.3339C21.6215 37.9589 22.1398 38.4563 22.777 38.7405C23.4143 39.0246 24.1306 39.0778 24.8028 38.8908C25.475 38.7038 26.061 38.2884 26.46 37.716C28.356 35.004 30.252 33.378 32.076 32.538C33.84 31.728 35.742 31.566 37.926 32.148C40.122 32.736 41.826 34.464 44.496 37.368L44.586 37.464C46.602 39.654 49.056 42.324 52.416 44.4C55.908 46.554 60.246 48 66 48C72.156 48 77.448 46.338 81.6 42.78C85.728 39.24 88.428 34.098 89.922 27.684C90.0812 27.0047 89.9987 26.2911 89.6886 25.6661C89.3785 25.0411 88.8602 24.5437 88.223 24.2595C87.5857 23.9754 86.8694 23.9222 86.1972 24.1092C85.525 24.2962 84.939 24.7116 84.54 25.284C82.644 27.996 80.748 29.622 78.924 30.462C77.16 31.272 75.258 31.434 73.074 30.852C70.878 30.264 69.174 28.536 66.504 25.632L66.414 25.536C64.398 23.346 61.944 20.676 58.584 18.6C55.092 16.446 50.754 15 45 15ZM24 42C17.844 42 12.552 43.662 8.39999 47.22C4.27199 50.76 1.57799 55.902 0.0779899 62.316C-0.0812192 62.9953 0.00133005 63.7089 0.311432 64.3339C0.621534 64.9589 1.13979 65.4563 1.77703 65.7405C2.41426 66.0246 3.13062 66.0778 3.80282 65.8908C4.47502 65.7038 5.06102 65.2884 5.45999 64.716C7.35599 62.004 9.25199 60.378 11.076 59.538C12.84 58.728 14.742 58.566 16.926 59.148C19.122 59.736 20.826 61.464 23.496 64.368L23.586 64.464C25.602 66.654 28.056 69.324 31.416 71.4C34.908 73.554 39.246 75 45 75C51.156 75 56.448 73.338 60.6 69.78C64.728 66.24 67.428 61.098 68.922 54.684C69.0812 54.0047 68.9987 53.2911 68.6886 52.6661C68.3785 52.0411 67.8602 51.5437 67.223 51.2595C66.5857 50.9754 65.8694 50.9222 65.1972 51.1092C64.525 51.2962 63.939 51.7116 63.54 52.284C61.644 54.996 59.748 56.622 57.924 57.462C56.16 58.272 54.258 58.434 52.074 57.852C49.878 57.264 48.174 55.536 45.504 52.632L45.414 52.536C43.404 50.346 40.944 47.676 37.584 45.6C34.092 43.44 29.754 42 24 42Z" fill="#F8F8F8"/>
</g>
<defs>
<clipPath id="clip0_2_180">
<rect width="90" height="90" fill="white"/>
</clipPath>
</defs>
</svg>
