<svg width="90" height="90" viewBox="0 0 90 90" fill="none" xmlns="http://www.w3.org/2000/svg">
<g clip-path="url(#clip0_2_168)">
<path d="M4.21875 0C1.8825 0 0 1.8825 0 4.21875V85.7812C0 88.1175 1.8825 90 4.21875 90H85.7812C88.1175 90 90 88.1175 90 85.7812V4.21875C90 1.8825 88.1175 0 85.7812 0H4.21875ZM69.33 36.5625C71.625 36.5625 73.6575 36.7013 75.4313 36.9788C77.1042 37.2294 78.7459 37.6568 80.3288 38.2537V47.4713C79.569 46.9458 78.7617 46.4926 77.9175 46.1175C77.0469 45.7258 76.1481 45.3998 75.2288 45.1425C73.4872 44.6572 71.6891 44.405 69.8812 44.3925C68.7562 44.3925 67.7325 44.4975 66.81 44.715C65.9878 44.8908 65.1991 45.1972 64.4738 45.6225C63.8363 46.0125 63.3487 46.4813 63 47.025C62.6492 47.5731 62.4667 48.2119 62.475 48.8625C62.475 49.5975 62.6738 50.2612 63.06 50.8462C63.45 51.4313 64.005 51.9863 64.7213 52.5112C65.4375 53.0363 66.3075 53.5462 67.3313 54.0488C68.355 54.555 69.5137 55.0763 70.8037 55.6088C72.5663 56.3475 74.1488 57.135 75.5512 57.9637C76.9538 58.7962 78.1575 59.7375 79.1625 60.7875C80.1675 61.8337 80.9325 63.03 81.465 64.3763C81.9975 65.7225 82.2675 67.2862 82.2675 69.075C82.2675 71.5387 81.7988 73.6125 80.8688 75.285C79.9601 76.9345 78.6561 78.3326 77.0737 79.3537C75.3682 80.4352 73.4778 81.1929 71.4975 81.5888C69.375 82.0387 67.1362 82.2637 64.785 82.2637C62.4709 82.2739 60.1609 82.068 57.885 81.6488C55.916 81.3082 54.0063 80.6855 52.215 79.8V69.9375C55.6042 72.8217 59.9035 74.4155 64.3537 74.4375C65.6025 74.4375 66.6938 74.325 67.6238 74.1C68.5575 73.875 69.3337 73.56 69.96 73.1625C70.5825 72.7575 71.0475 72.285 71.3587 71.7375C71.7028 71.1 71.8593 70.3782 71.8102 69.6555C71.761 68.9328 71.5083 68.2388 71.0813 67.6537C70.5241 66.9165 69.8426 66.282 69.0675 65.7787C68.1062 65.1415 67.094 64.5847 66.0413 64.1138C64.7934 63.5439 63.5344 62.9988 62.265 62.4787C58.8225 61.0425 56.2575 59.2837 54.5662 57.21C52.8787 55.1362 52.0312 52.6275 52.0312 49.6912C52.0312 47.3888 52.4925 45.4125 53.415 43.7587C54.3375 42.105 55.59 40.7438 57.18 39.675C58.8617 38.5656 60.7288 37.7667 62.6925 37.3162C64.8674 36.8035 67.0955 36.5504 69.33 36.5625ZM12.6562 37.2675H48.5175V45.39H35.6475V81.5625H25.4587V45.39H12.6562V37.2675Z" fill="#F8F8F8"/>
</g>
<defs>
<clipPath id="clip0_2_168">
<rect width="90" height="90" fill="white"/>
</clipPath>
</defs>
</svg>
